{
  "accessors": [
    {
      "bufferView": 2,
      "componentType": 5126,
      "count": 168,
      "max": [
        123.42410278320312,
        68.223098754882812,
        114.50119781494141
      ],
      "min": [
        1.3381996154785156,
        68.223098754882812,
        0.038198471069335938
      ],
      "type": "VEC3"
    },
    {
      "bufferView": 2,
      "byteOffset": 2016,
      "componentType": 5126,
      "count": 168,
      "max": [
        0,
        1,
        -0
      ],
      "min": [
        0,
        1,
        -0
      ],
      "type": "VEC3"
    },
    {
      "bufferView": 3,
      "componentType": 5126,
      "count": 168,
      "max": [
        -0.71912997961044312,
        0,
        -0.44014862179756165,
        1
      ],
      "min": [
        -0.89792501926422119,
        0,
        -0.69487565755844116,
        1
      ],
      "type": "VEC4"
    },
    {
      "bufferView": 1,
      "componentType": 5126,
      "count": 168,
      "max": [
        0.53250002861022949,
        0.6128000020980835
      ],
      "min": [
        0.2515999972820282,
        0.33180001378059387
      ],
      "type": "VEC2"
    },
    {
      "bufferView": 0,
      "componentType": 5125,
      "count": 498,
      "max": [
        167
      ],
      "min": [
        0
      ],
      "type": "SCALAR"
    },
    {
      "bufferView": 2,
      "byteOffset": 4032,
      "componentType": 5126,
      "count": 3560,
      "max": [
        123.42410278320312,
        68.223098754882812,
        118.6802978515625
      ],
      "min": [
        0,
        0,
        0
      ],
      "type": "VEC3"
    },
    {
      "bufferView": 2,
      "byteOffset": 46752,
      "componentType": 5126,
      "count": 3560,
      "max": [
        0.99954599142074585,
        0.92114418745040894,
        0.9994768500328064
      ],
      "min": [
        -0.99955171346664429,
        -0.99994051456451416,
        -0.99964457750320435
      ],
      "type": "VEC3"
    },
    {
      "bufferView": 3,
      "byteOffset": 2688,
      "componentType": 5126,
      "count": 3560,
      "max": [
        0.99999105930328369,
        0.99828517436981201,
        0.96888852119445801,
        1
      ],
      "min": [
        -0.77289789915084839,
        -0.9995301365852356,
        -0.9851875901222229,
        1
      ],
      "type": "VEC4"
    },
    {
      "bufferView": 1,
      "byteOffset": 1344,
      "componentType": 5126,
      "count": 3560,
      "max": [
        0.70310002565383911,
        0.90439999103546143
      ],
      "min": [
        0.040800001472234726,
        0.036100000143051147
      ],
      "type": "VEC2"
    },
    {
      "bufferView": 0,
      "byteOffset": 1992,
      "componentType": 5125,
      "count": 20436,
      "max": [
        3559
      ],
      "min": [
        0
      ],
      "type": "SCALAR"
    }
  ],
  "asset": {
    "extras": {
      "author": "vicente betoret ferrero (https://sketchfab.com/deathcow)",
      "license": "CC-BY-4.0 (http://creativecommons.org/licenses/by/4.0/)",
      "source": "https://sketchfab.com/models/37769edeadac4f4c8cabc45d5ac7a3c6",
      "title": "4 sacks of white cloth"
    },
    "generator": "Sketchfab-3.18.7",
    "version": "2.0"
  },
  "bufferViews": [
    {
      "buffer": 0,
      "byteLength": 83736,
      "byteOffset": 0,
      "name": "floatBufferViews",
      "target": 34963
    },
    {
      "buffer": 0,
      "byteLength": 29824,
      "byteOffset": 83736,
      "byteStride": 8,
      "name": "floatBufferViews",
      "target": 34962
    },
    {
      "buffer": 0,
      "byteLength": 89472,
      "byteOffset": 113560,
      "byteStride": 12,
      "name": "floatBufferViews",
      "target": 34962
    },
    {
      "buffer": 0,
      "byteLength": 59648,
      "byteOffset": 203032,
      "byteStride": 16,
      "name": "floatBufferViews",
      "target": 34962
    }
  ],
  "buffers": [
    {
      "byteLength": 262680,
      "uri": "scene.bin"
    }
  ],
  "images": [
    {
      "uri": "textures/07___Default_baseColor.png"
    }
  ],
  "materials": [
    {
      "doubleSided": true,
      "emissiveFactor": [
        0,
        0,
        0
      ],
      "name": "07___Default",
      "pbrMetallicRoughness": {
        "baseColorFactor": [
          1,
          1,
          1,
          1
        ],
        "baseColorTexture": {
          "index": 0,
          "texCoord": 0
        },
        "metallicFactor": 0,
        "roughnessFactor": 0.59999999999999998
      }
    }
  ],
  "meshes": [
    {
      "primitives": [
        {
          "attributes": {
            "NORMAL": 1,
            "POSITION": 0,
            "TANGENT": 2,
            "TEXCOORD_0": 3
          },
          "indices": 4,
          "material": 0,
          "mode": 4
        }
      ]
    },
    {
      "primitives": [
        {
          "attributes": {
            "NORMAL": 6,
            "POSITION": 5,
            "TANGENT": 7,
            "TEXCOORD_0": 8
          },
          "indices": 9,
          "material": 0,
          "mode": 4
        }
      ]
    }
  ],
  "nodes": [
    {
      "children": [
        1
      ],
      "name": "RootNode (gltf orientation matrix)",
      "rotation": [
        -0.70710678118654746,
        -0,
        -0,
        0.70710678118654757
      ]
    },
    {
      "children": [
        2
      ],
      "name": "RootNode (model correction matrix)"
    },
    {
      "children": [
        3,
        4
      ],
      "name": "4sacos.obj.cleaner.gles"
    },
    {
      "mesh": 0,
      "name": ""
    },
    {
      "mesh": 1,
      "name": ""
    }
  ],
  "samplers": [
    {
      "magFilter": 9729,
      "minFilter": 9987,
      "wrapS": 10497,
      "wrapT": 10497
    }
  ],
  "scene": 0,
  "scenes": [
    {
      "name": "OSG_Scene",
      "nodes": [
        0
      ]
    }
  ],
  "textures": [
    {
      "sampler": 0,
      "source": 0
    }
  ]
}

